<svg xmlns="http://www.w3.org/2000/svg" viewBox="0 0 128 128">
  <path fill-rule="evenodd" d="M90.3,85.5L89.8,85.7L89.8,96.3L90.2,96.5L91.5,96.6L93.0,96.5L92.8,85.9L91.5,85.9Z M0.3,84.7L0.3,85.2L0.5,85.5L0.8,85.2Z M85.1,84.0L85.3,95.3L86.8,95.8L87.5,95.8L87.8,96.0L88.3,96.0L88.1,85.0L87.8,84.9L87.5,84.9L87.0,84.7L85.6,84.0Z M79.6,80.1L79.6,92.8L79.7,93.1L80.2,93.3L81.4,93.9L81.7,93.9L82.6,94.4L82.8,82.5L81.7,81.7L80.9,81.2L79.9,80.1Z M76.7,91.1L76.7,76.6L76.2,75.9L76.0,75.4L75.7,75.1L75.4,74.3L75.0,73.9L74.8,73.6L74.8,73.3L74.5,72.6L74.3,89.4L74.5,89.7L76.4,91.1Z M63.7,41.6L63.7,86.2L65.4,84.5L65.4,43.3Z M71.0,41.3L69.3,43.3L69.3,84.5L71.0,86.5Z M76.7,36.8L76.4,36.8L74.5,38.1L74.3,38.4L74.5,55.3L74.8,54.6L74.8,54.2L75.0,53.9L75.4,53.6L75.7,52.7L76.0,52.4L76.2,51.9L76.7,51.2Z M58.0,36.8L58.0,91.1L58.4,91.1L60.4,89.4L60.4,38.4Z M52.0,33.6L52.0,94.3L52.5,94.3L55.2,92.9L55.2,34.9Z M82.6,33.4L81.7,33.9L81.4,33.9L80.2,34.6L79.7,34.7L79.6,35.1L79.6,47.7L79.9,47.7L80.9,46.7L81.7,46.2L82.8,45.3Z M46.4,31.9L46.4,96.0L49.5,95.3L49.5,32.5Z M88.1,31.7L87.5,32.0L86.8,32.0L85.3,32.5L85.6,43.8L87.0,43.1L87.3,43.1L88.1,42.8Z M92.8,31.2L91.5,31.2L90.2,31.4L89.8,31.5L90.0,42.3L90.3,42.3L91.5,42.0L93.0,41.8Z M43.2,31.2L41.7,31.4L41.9,96.6L44.9,96.3L44.9,31.5Z M96.0,31.0L94.0,31.2L94.2,41.8L98.2,42.0L102.3,43.0L109.2,47.0L112.5,50.5L115.0,54.7L116.7,60.1L117.1,64.2L116.4,69.2L115.0,73.1L112.5,77.3L109.2,80.8L102.3,84.9L94.0,86.2L94.2,96.8L100.6,96.3L106.1,94.8L111.5,92.3L116.4,88.7L121.6,83.0L124.6,77.8L126.8,71.6L127.7,65.9L127.3,58.8L125.8,52.9L123.6,48.0L119.6,42.3L115.4,38.3L109.0,34.2L102.9,32.0Z M40.5,31.0L35.2,31.4L28.4,33.1L22.9,35.7L17.0,40.3L13.0,45.0L10.1,49.9L8.1,55.4L7.1,61.5L7.2,68.2L8.6,74.1L10.6,79.0L14.6,85.0L20.4,90.4L26.4,93.9L33.1,96.1L38.5,96.8L40.7,96.6Z"/>
  <style>
    path { fill: #1C1917; }
    @media (prefers-color-scheme: dark) {
      path { fill: #FFF; }
    }
  </style>
</svg>